<?xml version="1.0" encoding="UTF-8" standalone="no"?>
<!DOCTYPE svg PUBLIC "-//W3C//DTD SVG 1.1//EN"
 "http://www.w3.org/Graphics/SVG/1.1/DTD/svg11.dtd">
<!-- Generated by graphviz version 2.47.1 (20210417.1919)
 -->
<!-- Title: g Pages: 1 -->
<svg width="392pt" height="473pt"
 viewBox="0.00 0.00 391.77 473.00" xmlns="http://www.w3.org/2000/svg" xmlns:xlink="http://www.w3.org/1999/xlink">
<g id="graph0" class="graph" transform="scale(1 1) rotate(0) translate(4 469)">
<title>g</title>
<defs>
<linearGradient id="l_0" gradientUnits="userSpaceOnUse" x1="191.88" y1="-469" x2="191.88" y2="4" >
<stop offset="0" style="stop-color:white;stop-opacity:1.;"/>
<stop offset="1" style="stop-color:lightblue;stop-opacity:1.;"/>
</linearGradient>
</defs>
<polygon fill="url(#l_0)" stroke="transparent" points="-4,4 -4,-469 387.77,-469 387.77,4 -4,4"/>
<!-- node0 -->
<g id="node1" class="node">
<title>node0</title>
<defs>
<linearGradient id="l_1" gradientUnits="userSpaceOnUse" x1="232.06" y1="-314.5" x2="232.06" y2="-366.5" >
<stop offset="0" style="stop-color:yellow;stop-opacity:1.;"/>
<stop offset="1" style="stop-color:blue;stop-opacity:1.;"/>
</linearGradient>
</defs>
<polygon fill="url(#l_1)" stroke="black" points="195.56,-314.5 195.56,-366.5 268.56,-366.5 268.56,-314.5 195.56,-314.5"/>
<text text-anchor="middle" x="232.06" y="-349.7" font-family="Times,serif" font-size="16.00">0x10ba8</text>
<polyline fill="none" stroke="black" points="195.56,-340.5 268.56,-340.5 "/>
<text text-anchor="middle" x="232.06" y="-323.7" font-family="Times,serif" font-size="16.00"> </text>
</g>
<!-- node1 -->
<g id="node2" class="node">
<title>node1</title>
<defs>
<linearGradient id="l_2" gradientUnits="userSpaceOnUse" x1="186.06" y1="-268.5" x2="278.06" y2="-268.5" >
<stop offset="0" style="stop-color:blue;stop-opacity:1.;"/>
<stop offset="1" style="stop-color:red;stop-opacity:1.;"/>
</linearGradient>
</defs>
<polygon fill="url(#l_2)" stroke="black" points="186.06,-216.5 186.06,-320.5 278.06,-320.5 278.06,-216.5 186.06,-216.5"/>
<text text-anchor="middle" x="232.06" y="-303.7" font-family="Times,serif" font-size="16.00">0xf7fc4380</text>
<polyline fill="none" stroke="black" points="186.06,-294.5 278.06,-294.5 "/>
<text text-anchor="middle" x="232.06" y="-277.7" font-family="Times,serif" font-size="16.00"> </text>
<polyline fill="none" stroke="black" points="186.06,-268.5 278.06,-268.5 "/>
<text text-anchor="middle" x="232.06" y="-251.7" font-family="Times,serif" font-size="16.00"> </text>
<polyline fill="none" stroke="black" points="186.06,-242.5 278.06,-242.5 "/>
<text text-anchor="middle" x="232.06" y="-225.7" font-family="Times,serif" font-size="16.00">&#45;1</text>
</g>
<!-- node0&#45;&gt;node1 -->
<g id="0" class="edge">
<title>node0:f0&#45;&gt;node1:f0</title>
<path fill="none" stroke="black" d="M269.06,-353.5C269.06,-353.5 250.36,-336.82 239.55,-327.18"/>
<polygon fill="black" stroke="black" points="241.85,-324.54 232.06,-320.5 237.19,-329.77 241.85,-324.54"/>
</g>
<!-- node2 -->
<g id="node3" class="node">
<title>node2</title>
<defs>
<linearGradient id="l_3" gradientUnits="userSpaceOnUse" x1="232.06" y1="-360.5" x2="232.06" y2="-464.5" >
<stop offset="0" style="stop-color:brown;stop-opacity:1.;"/>
<stop offset="1" style="stop-color:yellow;stop-opacity:1.;"/>
</linearGradient>
</defs>
<polygon fill="url(#l_3)" stroke="black" points="186.06,-360.5 186.06,-464.5 278.06,-464.5 278.06,-360.5 186.06,-360.5"/>
<text text-anchor="middle" x="232.06" y="-447.7" font-family="Times,serif" font-size="16.00">0xf7fc44b8</text>
<polyline fill="none" stroke="black" points="186.06,-438.5 278.06,-438.5 "/>
<text text-anchor="middle" x="232.06" y="-421.7" font-family="Times,serif" font-size="16.00"> </text>
<polyline fill="none" stroke="black" points="186.06,-412.5 278.06,-412.5 "/>
<text text-anchor="middle" x="232.06" y="-395.7" font-family="Times,serif" font-size="16.00"> </text>
<polyline fill="none" stroke="black" points="186.06,-386.5 278.06,-386.5 "/>
<text text-anchor="middle" x="232.06" y="-369.7" font-family="Times,serif" font-size="16.00">2</text>
</g>
<!-- node0&#45;&gt;node2 -->
<g id="1" class="edge">
<title>node0:f1&#45;&gt;node2:f0</title>
<path fill="none" stroke="black" d="M269.06,-327.5C269.06,-327.5 275.18,-411.74 277.32,-441.35"/>
<polygon fill="black" stroke="black" points="273.85,-441.78 278.06,-451.5 280.83,-441.27 273.85,-441.78"/>
</g>
<!-- node3 -->
<g id="node4" class="node">
<title>node3</title>
<defs>
<linearGradient id="l_4" gradientUnits="userSpaceOnUse" x1="232.06" y1="-144.5" x2="232.06" y2="-248.5" >
<stop offset="0" style="stop-color:green;stop-opacity:1.;"/>
<stop offset="1" style="stop-color:red;stop-opacity:1.;"/>
</linearGradient>
</defs>
<polygon fill="url(#l_4)" stroke="black" points="133.56,-144.5 133.56,-248.5 330.56,-248.5 330.56,-144.5 133.56,-144.5"/>
<text text-anchor="middle" x="232.06" y="-231.7" font-family="Times,serif" font-size="16.00">3.43322790286038071e&#45;06</text>
<polyline fill="none" stroke="black" points="133.56,-222.5 330.56,-222.5 "/>
<text text-anchor="middle" x="232.06" y="-205.7" font-family="Times,serif" font-size="16.00">44.79998779296875</text>
<polyline fill="none" stroke="black" points="133.56,-196.5 330.56,-196.5 "/>
<text text-anchor="middle" x="232.06" y="-179.7" font-family="Times,serif" font-size="16.00">0</text>
<polyline fill="none" stroke="black" points="133.56,-170.5 330.56,-170.5 "/>
<text text-anchor="middle" x="232.06" y="-153.7" font-family="Times,serif" font-size="16.00"> </text>
</g>
<!-- node1&#45;&gt;node3 -->
<g id="2" class="edge">
<title>node1:f0&#45;&gt;node3:f0</title>
<path fill="none" stroke="black" d="M278.06,-307.5C278.06,-307.5 251.1,-272.92 238.46,-256.7"/>
<polygon fill="black" stroke="black" points="240.97,-254.23 232.06,-248.5 235.45,-258.54 240.97,-254.23"/>
</g>
<!-- node4 -->
<g id="node5" class="node">
<title>node4</title>
<defs>
<linearGradient id="l_5" gradientUnits="userSpaceOnUse" x1="123.71" y1="-160.5" x2="215.71" y2="-160.5" >
<stop offset="0" style="stop-color:red;stop-opacity:1.;"/>
<stop offset="1" style="stop-color:green;stop-opacity:1.;"/>
</linearGradient>
</defs>
<polygon fill="url(#l_5)" stroke="black" points="123.71,-108.5 123.71,-212.5 215.71,-212.5 215.71,-108.5 123.71,-108.5"/>
<text text-anchor="middle" x="169.71" y="-195.7" font-family="Times,serif" font-size="16.00">0xf7fc4380</text>
<polyline fill="none" stroke="black" points="123.71,-186.5 215.71,-186.5 "/>
<text text-anchor="middle" x="169.71" y="-169.7" font-family="Times,serif" font-size="16.00"> </text>
<polyline fill="none" stroke="black" points="123.71,-160.5 215.71,-160.5 "/>
<text text-anchor="middle" x="169.71" y="-143.7" font-family="Times,serif" font-size="16.00"> </text>
<polyline fill="none" stroke="black" points="123.71,-134.5 215.71,-134.5 "/>
<text text-anchor="middle" x="169.71" y="-117.7" font-family="Times,serif" font-size="16.00">2</text>
</g>
<!-- node1&#45;&gt;node4 -->
<g id="3" class="edge">
<title>node1:f1&#45;&gt;node4:f0</title>
<path fill="none" stroke="black" d="M186.06,-281.5C186.06,-281.5 204.52,-230.45 212.31,-208.91"/>
<polygon fill="black" stroke="black" points="215.6,-210.09 215.71,-199.5 209.02,-207.71 215.6,-210.09"/>
</g>
<!-- node5 -->
<g id="node6" class="node">
<title>node5</title>
<defs>
<linearGradient id="l_6" gradientUnits="userSpaceOnUse" x1="356.77" y1="-216.5" x2="356.77" y2="-320.5" >
<stop offset="0" style="stop-color:red;stop-opacity:1.;"/>
<stop offset="1" style="stop-color:red;stop-opacity:1.;"/>
</linearGradient>
</defs>
<polygon fill="url(#l_6)" stroke="black" points="329.77,-216.5 329.77,-320.5 383.77,-320.5 383.77,-216.5 329.77,-216.5"/>
<text text-anchor="middle" x="356.77" y="-303.7" font-family="Times,serif" font-size="16.00">(nil)</text>
<polyline fill="none" stroke="black" points="329.77,-294.5 383.77,-294.5 "/>
<text text-anchor="middle" x="356.77" y="-277.7" font-family="Times,serif" font-size="16.00"> </text>
<polyline fill="none" stroke="black" points="329.77,-268.5 383.77,-268.5 "/>
<text text-anchor="middle" x="356.77" y="-251.7" font-family="Times,serif" font-size="16.00"> </text>
<polyline fill="none" stroke="black" points="329.77,-242.5 383.77,-242.5 "/>
<text text-anchor="middle" x="356.77" y="-225.7" font-family="Times,serif" font-size="16.00">&#45;1</text>
</g>
<!-- node1&#45;&gt;node5 -->
<g id="4" class="edge">
<title>node1:f2&#45;&gt;node5:f0</title>
<path fill="none" stroke="black" d="M278.06,-255.5C278.06,-255.5 308.37,-285.98 322.58,-300.27"/>
<polygon fill="black" stroke="black" points="320.24,-302.88 329.77,-307.5 325.2,-297.94 320.24,-302.88"/>
</g>
<!-- node4&#45;&gt;node3 -->
<g id="5" class="edge">
<title>node4:f0&#45;&gt;node3:f1</title>
<path fill="none" stroke="black" d="M215.71,-199.5C215.71,-199.5 163.74,-173.09 142.22,-162.16"/>
<polygon fill="black" stroke="black" points="143.56,-158.91 133.06,-157.5 140.39,-165.15 143.56,-158.91"/>
</g>
<!-- node6 -->
<g id="node7" class="node">
<title>node6</title>
<defs>
<linearGradient id="l_7" gradientUnits="userSpaceOnUse" x1="232.06" y1="-72.5" x2="232.06" y2="-176.5" >
<stop offset="0" style="stop-color:orange;stop-opacity:1.;"/>
<stop offset="1" style="stop-color:green;stop-opacity:1.;"/>
</linearGradient>
</defs>
<polygon fill="url(#l_7)" stroke="black" points="186.06,-72.5 186.06,-176.5 278.06,-176.5 278.06,-72.5 186.06,-72.5"/>
<text text-anchor="middle" x="232.06" y="-159.7" font-family="Times,serif" font-size="16.00">0xf7fc4380</text>
<polyline fill="none" stroke="black" points="186.06,-150.5 278.06,-150.5 "/>
<text text-anchor="middle" x="232.06" y="-133.7" font-family="Times,serif" font-size="16.00"> </text>
<polyline fill="none" stroke="black" points="186.06,-124.5 278.06,-124.5 "/>
<text text-anchor="middle" x="232.06" y="-107.7" font-family="Times,serif" font-size="16.00"> </text>
<polyline fill="none" stroke="black" points="186.06,-98.5 278.06,-98.5 "/>
<text text-anchor="middle" x="232.06" y="-81.7" font-family="Times,serif" font-size="16.00">1</text>
</g>
<!-- node4&#45;&gt;node6 -->
<g id="6" class="edge">
<title>node4:f1&#45;&gt;node6:f0</title>
<path fill="none" stroke="black" d="M215.71,-173.5C215.71,-173.5 204.41,-169.69 195.77,-166.77"/>
<polygon fill="black" stroke="black" points="196.66,-163.38 186.06,-163.5 194.42,-170.01 196.66,-163.38"/>
</g>
<!-- node10 -->
<g id="node11" class="node">
<title>node10</title>
<defs>
<linearGradient id="l_8" gradientUnits="userSpaceOnUse" x1="107.35" y1="-72.5" x2="107.35" y2="-176.5" >
<stop offset="0" style="stop-color:magenta;stop-opacity:1.;"/>
<stop offset="1" style="stop-color:green;stop-opacity:1.;"/>
</linearGradient>
</defs>
<polygon fill="url(#l_8)" stroke="black" points="80.35,-72.5 80.35,-176.5 134.35,-176.5 134.35,-72.5 80.35,-72.5"/>
<text text-anchor="middle" x="107.35" y="-159.7" font-family="Times,serif" font-size="16.00">(nil)</text>
<polyline fill="none" stroke="black" points="80.35,-150.5 134.35,-150.5 "/>
<text text-anchor="middle" x="107.35" y="-133.7" font-family="Times,serif" font-size="16.00"> </text>
<polyline fill="none" stroke="black" points="80.35,-124.5 134.35,-124.5 "/>
<text text-anchor="middle" x="107.35" y="-107.7" font-family="Times,serif" font-size="16.00"> </text>
<polyline fill="none" stroke="black" points="80.35,-98.5 134.35,-98.5 "/>
<text text-anchor="middle" x="107.35" y="-81.7" font-family="Times,serif" font-size="16.00">&#45;1</text>
</g>
<!-- node4&#45;&gt;node10 -->
<g id="7" class="edge">
<title>node4:f2&#45;&gt;node10:f0</title>
<path fill="none" stroke="black" d="M123.71,-147.5C123.71,-147.5 126.21,-151.25 128.78,-155.13"/>
<polygon fill="black" stroke="black" points="125.9,-157.11 134.35,-163.5 131.73,-153.24 125.9,-157.11"/>
</g>
<!-- node6&#45;&gt;node3 -->
<g id="8" class="edge">
<title>node6:f0&#45;&gt;node3:f1</title>
<path fill="none" stroke="black" d="M232.06,-176.5C232.06,-176.5 232.06,-164 232.06,-154.62"/>
<polygon fill="black" stroke="black" points="235.56,-154.5 232.06,-144.5 228.56,-154.5 235.56,-154.5"/>
</g>
<!-- node7 -->
<g id="node8" class="node">
<title>node7</title>
<defs>
<linearGradient id="l_9" gradientUnits="userSpaceOnUse" x1="294.42" y1="-108.5" x2="294.42" y2="-212.5" >
<stop offset="0" style="stop-color:cyan;stop-opacity:1.;"/>
<stop offset="1" style="stop-color:green;stop-opacity:1.;"/>
</linearGradient>
</defs>
<polygon fill="url(#l_9)" stroke="black" points="248.42,-108.5 248.42,-212.5 340.42,-212.5 340.42,-108.5 248.42,-108.5"/>
<text text-anchor="middle" x="294.42" y="-195.7" font-family="Times,serif" font-size="16.00">0xf7fc4380</text>
<polyline fill="none" stroke="black" points="248.42,-186.5 340.42,-186.5 "/>
<text text-anchor="middle" x="294.42" y="-169.7" font-family="Times,serif" font-size="16.00"> </text>
<polyline fill="none" stroke="black" points="248.42,-160.5 340.42,-160.5 "/>
<text text-anchor="middle" x="294.42" y="-143.7" font-family="Times,serif" font-size="16.00"> </text>
<polyline fill="none" stroke="black" points="248.42,-134.5 340.42,-134.5 "/>
<text text-anchor="middle" x="294.42" y="-117.7" font-family="Times,serif" font-size="16.00">2</text>
</g>
<!-- node6&#45;&gt;node7 -->
<g id="9" class="edge">
<title>node6:f1&#45;&gt;node7:f0</title>
<path fill="none" stroke="black" d="M278.06,-137.5C278.06,-137.5 261.04,-173.11 252.79,-190.35"/>
<polygon fill="black" stroke="black" points="249.57,-188.97 248.42,-199.5 255.89,-191.99 249.57,-188.97"/>
</g>
<!-- node9 -->
<g id="node10" class="node">
<title>node9</title>
<defs>
<linearGradient id="l_10" gradientUnits="userSpaceOnUse" x1="232.06" y1="-0.5" x2="232.06" y2="-104.5" >
<stop offset="0" style="stop-color:orange;stop-opacity:1.;"/>
<stop offset="1" style="stop-color:orange;stop-opacity:1.;"/>
</linearGradient>
</defs>
<polygon fill="url(#l_10)" stroke="black" points="205.06,-0.5 205.06,-104.5 259.06,-104.5 259.06,-0.5 205.06,-0.5"/>
<text text-anchor="middle" x="232.06" y="-87.7" font-family="Times,serif" font-size="16.00">(nil)</text>
<polyline fill="none" stroke="black" points="205.06,-78.5 259.06,-78.5 "/>
<text text-anchor="middle" x="232.06" y="-61.7" font-family="Times,serif" font-size="16.00"> </text>
<polyline fill="none" stroke="black" points="205.06,-52.5 259.06,-52.5 "/>
<text text-anchor="middle" x="232.06" y="-35.7" font-family="Times,serif" font-size="16.00"> </text>
<polyline fill="none" stroke="black" points="205.06,-26.5 259.06,-26.5 "/>
<text text-anchor="middle" x="232.06" y="-9.7" font-family="Times,serif" font-size="16.00">&#45;1</text>
</g>
<!-- node6&#45;&gt;node9 -->
<g id="10" class="edge">
<title>node6:f2&#45;&gt;node9:f0</title>
<path fill="none" stroke="black" d="M278.06,-111.5C278.06,-111.5 255.82,-108.12 242.27,-106.05"/>
<polygon fill="black" stroke="black" points="242.47,-102.54 232.06,-104.5 241.42,-109.46 242.47,-102.54"/>
</g>
<!-- node7&#45;&gt;node1 -->
<g id="12" class="edge">
<title>node7:f1&#45;&gt;node1:f0</title>
<path fill="none" stroke="black" d="M248.42,-173.5C248.42,-173.5 268.94,-266.26 275.83,-297.43"/>
<polygon fill="black" stroke="black" points="272.48,-298.49 278.06,-307.5 279.32,-296.98 272.48,-298.49"/>
</g>
<!-- node7&#45;&gt;node3 -->
<g id="11" class="edge">
<title>node7:f0&#45;&gt;node3:f1</title>
<path fill="none" stroke="black" d="M248.42,-199.5C248.42,-199.5 300.38,-173.09 321.9,-162.16"/>
<polygon fill="black" stroke="black" points="323.73,-165.15 331.06,-157.5 320.56,-158.91 323.73,-165.15"/>
</g>
<!-- node8 -->
<g id="node9" class="node">
<title>node8</title>
<defs>
<linearGradient id="l_11" gradientUnits="userSpaceOnUse" x1="356.77" y1="-72.5" x2="356.77" y2="-176.5" >
<stop offset="0" style="stop-color:cyan;stop-opacity:1.;"/>
<stop offset="1" style="stop-color:cyan;stop-opacity:1.;"/>
</linearGradient>
</defs>
<polygon fill="url(#l_11)" stroke="black" points="329.77,-72.5 329.77,-176.5 383.77,-176.5 383.77,-72.5 329.77,-72.5"/>
<text text-anchor="middle" x="356.77" y="-159.7" font-family="Times,serif" font-size="16.00">(nil)</text>
<polyline fill="none" stroke="black" points="329.77,-150.5 383.77,-150.5 "/>
<text text-anchor="middle" x="356.77" y="-133.7" font-family="Times,serif" font-size="16.00"> </text>
<polyline fill="none" stroke="black" points="329.77,-124.5 383.77,-124.5 "/>
<text text-anchor="middle" x="356.77" y="-107.7" font-family="Times,serif" font-size="16.00"> </text>
<polyline fill="none" stroke="black" points="329.77,-98.5 383.77,-98.5 "/>
<text text-anchor="middle" x="356.77" y="-81.7" font-family="Times,serif" font-size="16.00">&#45;1</text>
</g>
<!-- node7&#45;&gt;node8 -->
<g id="13" class="edge">
<title>node7:f2&#45;&gt;node8:f0</title>
<path fill="none" stroke="black" d="M340.42,-147.5C340.42,-147.5 337.92,-151.25 335.34,-155.13"/>
<polygon fill="black" stroke="black" points="332.39,-153.24 329.77,-163.5 338.22,-157.11 332.39,-153.24"/>
</g>
<!-- node11 -->
<g id="node12" class="node">
<title>node11</title>
<defs>
<linearGradient id="l_12" gradientUnits="userSpaceOnUse" x1="107.35" y1="-216.5" x2="107.35" y2="-320.5" >
<stop offset="0" style="stop-color:red;stop-opacity:1.;"/>
<stop offset="1" style="stop-color:green;stop-opacity:1.;"/>
</linearGradient>
</defs>
<polygon fill="url(#l_12)" stroke="black" points="80.35,-216.5 80.35,-320.5 134.35,-320.5 134.35,-216.5 80.35,-216.5"/>
<text text-anchor="middle" x="107.35" y="-303.7" font-family="Times,serif" font-size="16.00">(nil)</text>
<polyline fill="none" stroke="black" points="80.35,-294.5 134.35,-294.5 "/>
<text text-anchor="middle" x="107.35" y="-277.7" font-family="Times,serif" font-size="16.00"> </text>
<polyline fill="none" stroke="black" points="80.35,-268.5 134.35,-268.5 "/>
<text text-anchor="middle" x="107.35" y="-251.7" font-family="Times,serif" font-size="16.00"> </text>
<polyline fill="none" stroke="black" points="80.35,-242.5 134.35,-242.5 "/>
<text text-anchor="middle" x="107.35" y="-225.7" font-family="Times,serif" font-size="16.00">&#45;1</text>
</g>
<!-- node10&#45;&gt;node11 -->
<g id="14" class="edge">
<title>node10:f1&#45;&gt;node11:f0</title>
<path fill="none" stroke="black" d="M134.35,-137.5C134.35,-137.5 134.35,-260.78 134.35,-297.37"/>
<polygon fill="black" stroke="black" points="130.85,-297.5 134.35,-307.5 137.85,-297.5 130.85,-297.5"/>
</g>
<!-- node12 -->
<g id="node13" class="node">
<title>node12</title>
<defs>
<linearGradient id="l_13" gradientUnits="userSpaceOnUse" x1="45" y1="-36.5" x2="45" y2="-140.5" >
<stop offset="0" style="stop-color:magenta;stop-opacity:1.;"/>
<stop offset="1" style="stop-color:magenta;stop-opacity:1.;"/>
</linearGradient>
</defs>
<polygon fill="url(#l_13)" stroke="black" points="0,-36.5 0,-140.5 90,-140.5 90,-36.5 0,-36.5"/>
<text text-anchor="middle" x="45" y="-123.7" font-family="Times,serif" font-size="16.00">0xf7fc43e0</text>
<polyline fill="none" stroke="black" points="0,-114.5 90,-114.5 "/>
<text text-anchor="middle" x="45" y="-97.7" font-family="Times,serif" font-size="16.00"> </text>
<polyline fill="none" stroke="black" points="0,-88.5 90,-88.5 "/>
<text text-anchor="middle" x="45" y="-71.7" font-family="Times,serif" font-size="16.00"> </text>
<polyline fill="none" stroke="black" points="0,-62.5 90,-62.5 "/>
<text text-anchor="middle" x="45" y="-45.7" font-family="Times,serif" font-size="16.00">1</text>
</g>
<!-- node10&#45;&gt;node12 -->
<g id="15" class="edge">
<title>node10:f2&#45;&gt;node12:f0</title>
<path fill="none" stroke="black" d="M80.35,-111.5C80.35,-111.5 82.47,-115.02 84.73,-118.75"/>
<polygon fill="black" stroke="black" points="81.84,-120.74 90,-127.5 87.83,-117.13 81.84,-120.74"/>
</g>
<!-- node11&#45;&gt;node1 -->
<g id="16" class="edge">
<title>node11:f2&#45;&gt;node1:f0</title>
<path fill="none" stroke="black" d="M134.35,-255.5C134.35,-255.5 164.66,-285.98 178.87,-300.27"/>
<polygon fill="black" stroke="black" points="176.53,-302.88 186.06,-307.5 181.49,-297.94 176.53,-302.88"/>
</g>
</g>
</svg>
