<?xml version="1.0" encoding="UTF-8" standalone="no"?>
<!DOCTYPE svg PUBLIC "-//W3C//DTD SVG 1.1//EN"
 "http://www.w3.org/Graphics/SVG/1.1/DTD/svg11.dtd">
<!-- Generated by graphviz version 2.47.1 (20210417.1919)
 -->
<!-- Title: example1 Pages: 1 -->
<svg width="113pt" height="188pt"
 viewBox="0.00 0.00 112.79 188.00" xmlns="http://www.w3.org/2000/svg" xmlns:xlink="http://www.w3.org/1999/xlink">
<g id="graph0" class="graph" transform="scale(1 1) rotate(0) translate(4 184)">
<title>example1</title>
<polygon fill="white" stroke="transparent" points="-4,4 -4,-184 108.79,-184 108.79,4 -4,4"/>
<!-- server1 -->
<g id="node1" class="node">
<title>server1</title>
<ellipse fill="none" stroke="black" cx="68.4" cy="-162" rx="36.29" ry="18"/>
<text text-anchor="middle" x="68.4" y="-158.3" font-family="Times,serif" font-size="14.00">server1</text>
</g>
<!-- server2 -->
<g id="node2" class="node">
<title>server2</title>
<ellipse fill="none" stroke="black" cx="36.4" cy="-90" rx="36.29" ry="18"/>
<text text-anchor="middle" x="36.4" y="-86.3" font-family="Times,serif" font-size="14.00">server2</text>
</g>
<!-- server1&#45;&#45;server2 -->
<g id="edge1" class="edge">
<title>server1&#45;&#45;server2</title>
<path fill="none" stroke="black" d="M60.65,-144.05C55.62,-133.05 49.09,-118.76 44.07,-107.79"/>
</g>
<!-- server3 -->
<g id="node3" class="node">
<title>server3</title>
<ellipse fill="none" stroke="black" cx="68.4" cy="-18" rx="36.29" ry="18"/>
<text text-anchor="middle" x="68.4" y="-14.3" font-family="Times,serif" font-size="14.00">server3</text>
</g>
<!-- server2&#45;&#45;server3 -->
<g id="edge2" class="edge">
<title>server2&#45;&#45;server3</title>
<path fill="none" stroke="black" d="M44.14,-72.05C49.17,-61.05 55.7,-46.76 60.72,-35.79"/>
</g>
<!-- server3&#45;&#45;server1 -->
<g id="edge3" class="edge">
<title>server3&#45;&#45;server1</title>
<path fill="none" stroke="black" d="M73.67,-35.99C76.59,-46.3 79.92,-59.77 81.4,-72 83.32,-87.88 83.32,-92.12 81.4,-108 79.92,-120.23 76.59,-133.7 73.67,-144.01"/>
</g>
</g>
</svg>
