<?xml version="1.0" encoding="UTF-8" standalone="no"?>
<!DOCTYPE svg PUBLIC "-//W3C//DTD SVG 1.1//EN"
 "http://www.w3.org/Graphics/SVG/1.1/DTD/svg11.dtd">
<!-- Generated by graphviz version 2.47.1 (20210417.1919)
 -->
<!-- Title: g Pages: 1 -->
<svg width="826pt" height="608pt"
 viewBox="0.00 0.00 826.00 608.00" xmlns="http://www.w3.org/2000/svg" xmlns:xlink="http://www.w3.org/1999/xlink">
<g id="graph0" class="graph" transform="scale(1 1) rotate(0) translate(4 604)">
<title>g</title>
<defs>
<linearGradient id="l_0" gradientUnits="userSpaceOnUse" x1="409" y1="-604" x2="409" y2="4" >
<stop offset="0" style="stop-color:white;stop-opacity:1.;"/>
<stop offset="1" style="stop-color:lightblue;stop-opacity:1.;"/>
</linearGradient>
</defs>
<polygon fill="url(#l_0)" stroke="transparent" points="-4,4 -4,-604 822,-604 822,4 -4,4"/>
<!-- node0 -->
<g id="node1" class="node">
<title>node0</title>
<defs>
<linearGradient id="l_1" gradientUnits="userSpaceOnUse" x1="36.5" y1="-444.5" x2="36.5" y2="-496.5" >
<stop offset="0" style="stop-color:yellow;stop-opacity:1.;"/>
<stop offset="1" style="stop-color:blue;stop-opacity:1.;"/>
</linearGradient>
</defs>
<polygon fill="url(#l_1)" stroke="black" points="0,-444.5 0,-496.5 73,-496.5 73,-444.5 0,-444.5"/>
<text text-anchor="middle" x="36.5" y="-479.7" font-family="Times,serif" font-size="16.00">0x10ba8</text>
<polyline fill="none" stroke="black" points="0,-470.5 73,-470.5 "/>
<text text-anchor="middle" x="36.5" y="-453.7" font-family="Times,serif" font-size="16.00"> </text>
</g>
<!-- node1 -->
<g id="node2" class="node">
<title>node1</title>
<defs>
<linearGradient id="l_2" gradientUnits="userSpaceOnUse" x1="109" y1="-493.5" x2="201" y2="-493.5" >
<stop offset="0" style="stop-color:blue;stop-opacity:1.;"/>
<stop offset="1" style="stop-color:red;stop-opacity:1.;"/>
</linearGradient>
</defs>
<polygon fill="url(#l_2)" stroke="black" points="109,-441.5 109,-545.5 201,-545.5 201,-441.5 109,-441.5"/>
<text text-anchor="middle" x="155" y="-528.7" font-family="Times,serif" font-size="16.00">0xf7fc4380</text>
<polyline fill="none" stroke="black" points="109,-519.5 201,-519.5 "/>
<text text-anchor="middle" x="155" y="-502.7" font-family="Times,serif" font-size="16.00"> </text>
<polyline fill="none" stroke="black" points="109,-493.5 201,-493.5 "/>
<text text-anchor="middle" x="155" y="-476.7" font-family="Times,serif" font-size="16.00"> </text>
<polyline fill="none" stroke="black" points="109,-467.5 201,-467.5 "/>
<text text-anchor="middle" x="155" y="-450.7" font-family="Times,serif" font-size="16.00">&#45;1</text>
</g>
<!-- node0&#45;&gt;node1 -->
<g id="0" class="edge">
<title>node0:f0&#45;&gt;node1:f0</title>
<path fill="none" stroke="black" d="M73,-483.5C95.8,-483.5 86.52,-518.38 99.29,-529.28"/>
<polygon fill="black" stroke="black" points="98.41,-532.68 109,-532.5 100.61,-526.03 98.41,-532.68"/>
</g>
<!-- node2 -->
<g id="node3" class="node">
<title>node2</title>
<defs>
<linearGradient id="l_3" gradientUnits="userSpaceOnUse" x1="155" y1="-318.5" x2="155" y2="-422.5" >
<stop offset="0" style="stop-color:brown;stop-opacity:1.;"/>
<stop offset="1" style="stop-color:yellow;stop-opacity:1.;"/>
</linearGradient>
</defs>
<polygon fill="url(#l_3)" stroke="black" points="109,-318.5 109,-422.5 201,-422.5 201,-318.5 109,-318.5"/>
<text text-anchor="middle" x="155" y="-405.7" font-family="Times,serif" font-size="16.00">0xf7fc44b8</text>
<polyline fill="none" stroke="black" points="109,-396.5 201,-396.5 "/>
<text text-anchor="middle" x="155" y="-379.7" font-family="Times,serif" font-size="16.00"> </text>
<polyline fill="none" stroke="black" points="109,-370.5 201,-370.5 "/>
<text text-anchor="middle" x="155" y="-353.7" font-family="Times,serif" font-size="16.00"> </text>
<polyline fill="none" stroke="black" points="109,-344.5 201,-344.5 "/>
<text text-anchor="middle" x="155" y="-327.7" font-family="Times,serif" font-size="16.00">2</text>
</g>
<!-- node0&#45;&gt;node2 -->
<g id="1" class="edge">
<title>node0:f1&#45;&gt;node2:f0</title>
<path fill="none" stroke="black" d="M73,-457.5C95.5,-457.5 86.68,-423.33 99.39,-412.65"/>
<polygon fill="black" stroke="black" points="100.59,-415.94 109,-409.5 98.41,-409.29 100.59,-415.94"/>
</g>
<!-- node3 -->
<g id="node4" class="node">
<title>node3</title>
<defs>
<linearGradient id="l_4" gradientUnits="userSpaceOnUse" x1="719.5" y1="-495.5" x2="719.5" y2="-599.5" >
<stop offset="0" style="stop-color:green;stop-opacity:1.;"/>
<stop offset="1" style="stop-color:red;stop-opacity:1.;"/>
</linearGradient>
</defs>
<polygon fill="url(#l_4)" stroke="black" points="621,-495.5 621,-599.5 818,-599.5 818,-495.5 621,-495.5"/>
<text text-anchor="middle" x="719.5" y="-582.7" font-family="Times,serif" font-size="16.00">3.43322790286038071e&#45;06</text>
<polyline fill="none" stroke="black" points="621,-573.5 818,-573.5 "/>
<text text-anchor="middle" x="719.5" y="-556.7" font-family="Times,serif" font-size="16.00">44.79998779296875</text>
<polyline fill="none" stroke="black" points="621,-547.5 818,-547.5 "/>
<text text-anchor="middle" x="719.5" y="-530.7" font-family="Times,serif" font-size="16.00">0</text>
<polyline fill="none" stroke="black" points="621,-521.5 818,-521.5 "/>
<text text-anchor="middle" x="719.5" y="-504.7" font-family="Times,serif" font-size="16.00"> </text>
</g>
<!-- node1&#45;&gt;node3 -->
<g id="2" class="edge">
<title>node1:f0&#45;&gt;node3:f0</title>
<path fill="none" stroke="black" d="M201,-532.5C219.3,-532.5 219.5,-547.13 237,-552.5 397.44,-601.73 447.61,-587.14 610.61,-586.52"/>
<polygon fill="black" stroke="black" points="611.01,-590.02 621,-586.5 610.99,-583.02 611.01,-590.02"/>
</g>
<!-- node4 -->
<g id="node5" class="node">
<title>node4</title>
<defs>
<linearGradient id="l_5" gradientUnits="userSpaceOnUse" x1="237" y1="-467.5" x2="329" y2="-467.5" >
<stop offset="0" style="stop-color:red;stop-opacity:1.;"/>
<stop offset="1" style="stop-color:green;stop-opacity:1.;"/>
</linearGradient>
</defs>
<polygon fill="url(#l_5)" stroke="black" points="237,-415.5 237,-519.5 329,-519.5 329,-415.5 237,-415.5"/>
<text text-anchor="middle" x="283" y="-502.7" font-family="Times,serif" font-size="16.00">0xf7fc4380</text>
<polyline fill="none" stroke="black" points="237,-493.5 329,-493.5 "/>
<text text-anchor="middle" x="283" y="-476.7" font-family="Times,serif" font-size="16.00"> </text>
<polyline fill="none" stroke="black" points="237,-467.5 329,-467.5 "/>
<text text-anchor="middle" x="283" y="-450.7" font-family="Times,serif" font-size="16.00"> </text>
<polyline fill="none" stroke="black" points="237,-441.5 329,-441.5 "/>
<text text-anchor="middle" x="283" y="-424.7" font-family="Times,serif" font-size="16.00">2</text>
</g>
<!-- node1&#45;&gt;node4 -->
<g id="3" class="edge">
<title>node1:f1&#45;&gt;node4:f0</title>
<path fill="none" stroke="black" d="M201,-506.5C213,-506.5 218.25,-506.5 226.88,-506.5"/>
<polygon fill="black" stroke="black" points="227,-510 237,-506.5 227,-503 227,-510"/>
</g>
<!-- node5 -->
<g id="node6" class="node">
<title>node5</title>
<defs>
<linearGradient id="l_6" gradientUnits="userSpaceOnUse" x1="283" y1="-76.5" x2="283" y2="-180.5" >
<stop offset="0" style="stop-color:red;stop-opacity:1.;"/>
<stop offset="1" style="stop-color:red;stop-opacity:1.;"/>
</linearGradient>
</defs>
<polygon fill="url(#l_6)" stroke="black" points="256,-76.5 256,-180.5 310,-180.5 310,-76.5 256,-76.5"/>
<text text-anchor="middle" x="283" y="-163.7" font-family="Times,serif" font-size="16.00">(nil)</text>
<polyline fill="none" stroke="black" points="256,-154.5 310,-154.5 "/>
<text text-anchor="middle" x="283" y="-137.7" font-family="Times,serif" font-size="16.00"> </text>
<polyline fill="none" stroke="black" points="256,-128.5 310,-128.5 "/>
<text text-anchor="middle" x="283" y="-111.7" font-family="Times,serif" font-size="16.00"> </text>
<polyline fill="none" stroke="black" points="256,-102.5 310,-102.5 "/>
<text text-anchor="middle" x="283" y="-85.7" font-family="Times,serif" font-size="16.00">&#45;1</text>
</g>
<!-- node1&#45;&gt;node5 -->
<g id="4" class="edge">
<title>node1:f2&#45;&gt;node5:f0</title>
<path fill="none" stroke="black" d="M201,-480.5C264.84,-480.5 195.85,-244.3 237,-195.5 247.44,-183.12 268.47,-193.74 278.05,-190.3"/>
<polygon fill="black" stroke="black" points="281.15,-191.93 283,-181.5 275.05,-188.5 281.15,-191.93"/>
</g>
<!-- node4&#45;&gt;node3 -->
<g id="5" class="edge">
<title>node4:f0&#45;&gt;node3:f1</title>
<path fill="none" stroke="black" d="M329,-506.5C401.89,-506.5 420.11,-508.06 493,-508.5 546.33,-508.83 562.17,-508.54 610.81,-508.5"/>
<polygon fill="black" stroke="black" points="611,-512 621,-508.5 611,-505 611,-512"/>
</g>
<!-- node6 -->
<g id="node7" class="node">
<title>node6</title>
<defs>
<linearGradient id="l_7" gradientUnits="userSpaceOnUse" x1="411" y1="-389.5" x2="411" y2="-493.5" >
<stop offset="0" style="stop-color:orange;stop-opacity:1.;"/>
<stop offset="1" style="stop-color:green;stop-opacity:1.;"/>
</linearGradient>
</defs>
<polygon fill="url(#l_7)" stroke="black" points="365,-389.5 365,-493.5 457,-493.5 457,-389.5 365,-389.5"/>
<text text-anchor="middle" x="411" y="-476.7" font-family="Times,serif" font-size="16.00">0xf7fc4380</text>
<polyline fill="none" stroke="black" points="365,-467.5 457,-467.5 "/>
<text text-anchor="middle" x="411" y="-450.7" font-family="Times,serif" font-size="16.00"> </text>
<polyline fill="none" stroke="black" points="365,-441.5 457,-441.5 "/>
<text text-anchor="middle" x="411" y="-424.7" font-family="Times,serif" font-size="16.00"> </text>
<polyline fill="none" stroke="black" points="365,-415.5 457,-415.5 "/>
<text text-anchor="middle" x="411" y="-398.7" font-family="Times,serif" font-size="16.00">1</text>
</g>
<!-- node4&#45;&gt;node6 -->
<g id="6" class="edge">
<title>node4:f1&#45;&gt;node6:f0</title>
<path fill="none" stroke="black" d="M329,-480.5C341,-480.5 346.25,-480.5 354.88,-480.5"/>
<polygon fill="black" stroke="black" points="355,-484 365,-480.5 355,-477 355,-484"/>
</g>
<!-- node10 -->
<g id="node11" class="node">
<title>node10</title>
<defs>
<linearGradient id="l_8" gradientUnits="userSpaceOnUse" x1="411" y1="-238.5" x2="411" y2="-342.5" >
<stop offset="0" style="stop-color:magenta;stop-opacity:1.;"/>
<stop offset="1" style="stop-color:green;stop-opacity:1.;"/>
</linearGradient>
</defs>
<polygon fill="url(#l_8)" stroke="black" points="384,-238.5 384,-342.5 438,-342.5 438,-238.5 384,-238.5"/>
<text text-anchor="middle" x="411" y="-325.7" font-family="Times,serif" font-size="16.00">(nil)</text>
<polyline fill="none" stroke="black" points="384,-316.5 438,-316.5 "/>
<text text-anchor="middle" x="411" y="-299.7" font-family="Times,serif" font-size="16.00"> </text>
<polyline fill="none" stroke="black" points="384,-290.5 438,-290.5 "/>
<text text-anchor="middle" x="411" y="-273.7" font-family="Times,serif" font-size="16.00"> </text>
<polyline fill="none" stroke="black" points="384,-264.5 438,-264.5 "/>
<text text-anchor="middle" x="411" y="-247.7" font-family="Times,serif" font-size="16.00">&#45;1</text>
</g>
<!-- node4&#45;&gt;node10 -->
<g id="7" class="edge">
<title>node4:f2&#45;&gt;node10:f0</title>
<path fill="none" stroke="black" d="M329,-454.5C385.74,-454.5 330.36,-344.64 373.09,-330.9"/>
<polygon fill="black" stroke="black" points="373.59,-334.37 383,-329.5 372.61,-327.44 373.59,-334.37"/>
</g>
<!-- node6&#45;&gt;node3 -->
<g id="8" class="edge">
<title>node6:f0&#45;&gt;node3:f1</title>
<path fill="none" stroke="black" d="M457,-480.5C490.94,-480.5 569.61,-504.09 610.89,-507.97"/>
<polygon fill="black" stroke="black" points="610.83,-511.47 621,-508.5 611.2,-504.48 610.83,-511.47"/>
</g>
<!-- node7 -->
<g id="node8" class="node">
<title>node7</title>
<defs>
<linearGradient id="l_9" gradientUnits="userSpaceOnUse" x1="539" y1="-369.5" x2="539" y2="-473.5" >
<stop offset="0" style="stop-color:cyan;stop-opacity:1.;"/>
<stop offset="1" style="stop-color:green;stop-opacity:1.;"/>
</linearGradient>
</defs>
<polygon fill="url(#l_9)" stroke="black" points="493,-369.5 493,-473.5 585,-473.5 585,-369.5 493,-369.5"/>
<text text-anchor="middle" x="539" y="-456.7" font-family="Times,serif" font-size="16.00">0xf7fc4380</text>
<polyline fill="none" stroke="black" points="493,-447.5 585,-447.5 "/>
<text text-anchor="middle" x="539" y="-430.7" font-family="Times,serif" font-size="16.00"> </text>
<polyline fill="none" stroke="black" points="493,-421.5 585,-421.5 "/>
<text text-anchor="middle" x="539" y="-404.7" font-family="Times,serif" font-size="16.00"> </text>
<polyline fill="none" stroke="black" points="493,-395.5 585,-395.5 "/>
<text text-anchor="middle" x="539" y="-378.7" font-family="Times,serif" font-size="16.00">2</text>
</g>
<!-- node6&#45;&gt;node7 -->
<g id="9" class="edge">
<title>node6:f1&#45;&gt;node7:f0</title>
<path fill="none" stroke="black" d="M457,-454.5C469.17,-454.5 474.21,-457.88 482.81,-459.56"/>
<polygon fill="black" stroke="black" points="482.72,-463.07 493,-460.5 483.36,-456.1 482.72,-463.07"/>
</g>
<!-- node9 -->
<g id="node10" class="node">
<title>node9</title>
<defs>
<linearGradient id="l_10" gradientUnits="userSpaceOnUse" x1="539" y1="-246.5" x2="539" y2="-350.5" >
<stop offset="0" style="stop-color:orange;stop-opacity:1.;"/>
<stop offset="1" style="stop-color:orange;stop-opacity:1.;"/>
</linearGradient>
</defs>
<polygon fill="url(#l_10)" stroke="black" points="512,-246.5 512,-350.5 566,-350.5 566,-246.5 512,-246.5"/>
<text text-anchor="middle" x="539" y="-333.7" font-family="Times,serif" font-size="16.00">(nil)</text>
<polyline fill="none" stroke="black" points="512,-324.5 566,-324.5 "/>
<text text-anchor="middle" x="539" y="-307.7" font-family="Times,serif" font-size="16.00"> </text>
<polyline fill="none" stroke="black" points="512,-298.5 566,-298.5 "/>
<text text-anchor="middle" x="539" y="-281.7" font-family="Times,serif" font-size="16.00"> </text>
<polyline fill="none" stroke="black" points="512,-272.5 566,-272.5 "/>
<text text-anchor="middle" x="539" y="-255.7" font-family="Times,serif" font-size="16.00">&#45;1</text>
</g>
<!-- node6&#45;&gt;node9 -->
<g id="10" class="edge">
<title>node6:f2&#45;&gt;node9:f0</title>
<path fill="none" stroke="black" d="M457,-428.5C500.17,-428.5 469.96,-351.82 501.09,-339.24"/>
<polygon fill="black" stroke="black" points="501.75,-342.67 511,-337.5 500.55,-335.78 501.75,-342.67"/>
</g>
<!-- node7&#45;&gt;node1 -->
<g id="12" class="edge">
<title>node7:f1&#45;&gt;node1:f0</title>
<path fill="none" stroke="black" d="M493,-434.5C458.41,-434.5 484.64,-482.7 457,-503.5 368.28,-570.27 318.57,-534.81 211.23,-532.61"/>
<polygon fill="black" stroke="black" points="211.04,-529.1 201,-532.5 210.96,-536.1 211.04,-529.1"/>
</g>
<!-- node7&#45;&gt;node3 -->
<g id="11" class="edge">
<title>node7:f0&#45;&gt;node3:f1</title>
<path fill="none" stroke="black" d="M585,-460.5C607.5,-460.5 598.68,-494.67 611.39,-505.35"/>
<polygon fill="black" stroke="black" points="610.41,-508.71 621,-508.5 612.59,-502.06 610.41,-508.71"/>
</g>
<!-- node8 -->
<g id="node9" class="node">
<title>node8</title>
<defs>
<linearGradient id="l_11" gradientUnits="userSpaceOnUse" x1="719.5" y1="-317.5" x2="719.5" y2="-421.5" >
<stop offset="0" style="stop-color:cyan;stop-opacity:1.;"/>
<stop offset="1" style="stop-color:cyan;stop-opacity:1.;"/>
</linearGradient>
</defs>
<polygon fill="url(#l_11)" stroke="black" points="692.5,-317.5 692.5,-421.5 746.5,-421.5 746.5,-317.5 692.5,-317.5"/>
<text text-anchor="middle" x="719.5" y="-404.7" font-family="Times,serif" font-size="16.00">(nil)</text>
<polyline fill="none" stroke="black" points="692.5,-395.5 746.5,-395.5 "/>
<text text-anchor="middle" x="719.5" y="-378.7" font-family="Times,serif" font-size="16.00"> </text>
<polyline fill="none" stroke="black" points="692.5,-369.5 746.5,-369.5 "/>
<text text-anchor="middle" x="719.5" y="-352.7" font-family="Times,serif" font-size="16.00"> </text>
<polyline fill="none" stroke="black" points="692.5,-343.5 746.5,-343.5 "/>
<text text-anchor="middle" x="719.5" y="-326.7" font-family="Times,serif" font-size="16.00">&#45;1</text>
</g>
<!-- node7&#45;&gt;node8 -->
<g id="13" class="edge">
<title>node7:f2&#45;&gt;node8:f0</title>
<path fill="none" stroke="black" d="M585,-408.5C628.64,-408.5 642.1,-408.5 681.02,-408.5"/>
<polygon fill="black" stroke="black" points="681.5,-412 691.5,-408.5 681.5,-405 681.5,-412"/>
</g>
<!-- node11 -->
<g id="node12" class="node">
<title>node11</title>
<defs>
<linearGradient id="l_12" gradientUnits="userSpaceOnUse" x1="539" y1="-123.5" x2="539" y2="-227.5" >
<stop offset="0" style="stop-color:red;stop-opacity:1.;"/>
<stop offset="1" style="stop-color:green;stop-opacity:1.;"/>
</linearGradient>
</defs>
<polygon fill="url(#l_12)" stroke="black" points="512,-123.5 512,-227.5 566,-227.5 566,-123.5 512,-123.5"/>
<text text-anchor="middle" x="539" y="-210.7" font-family="Times,serif" font-size="16.00">(nil)</text>
<polyline fill="none" stroke="black" points="512,-201.5 566,-201.5 "/>
<text text-anchor="middle" x="539" y="-184.7" font-family="Times,serif" font-size="16.00"> </text>
<polyline fill="none" stroke="black" points="512,-175.5 566,-175.5 "/>
<text text-anchor="middle" x="539" y="-158.7" font-family="Times,serif" font-size="16.00"> </text>
<polyline fill="none" stroke="black" points="512,-149.5 566,-149.5 "/>
<text text-anchor="middle" x="539" y="-132.7" font-family="Times,serif" font-size="16.00">&#45;1</text>
</g>
<!-- node10&#45;&gt;node11 -->
<g id="14" class="edge">
<title>node10:f1&#45;&gt;node11:f0</title>
<path fill="none" stroke="black" d="M439,-303.5C486.1,-303.5 464.09,-227.22 500.94,-215.9"/>
<polygon fill="black" stroke="black" points="501.58,-219.34 511,-214.5 500.61,-212.41 501.58,-219.34"/>
</g>
<!-- node12 -->
<g id="node13" class="node">
<title>node12</title>
<defs>
<linearGradient id="l_13" gradientUnits="userSpaceOnUse" x1="539" y1="-0.5" x2="539" y2="-104.5" >
<stop offset="0" style="stop-color:magenta;stop-opacity:1.;"/>
<stop offset="1" style="stop-color:magenta;stop-opacity:1.;"/>
</linearGradient>
</defs>
<polygon fill="url(#l_13)" stroke="black" points="494,-0.5 494,-104.5 584,-104.5 584,-0.5 494,-0.5"/>
<text text-anchor="middle" x="539" y="-87.7" font-family="Times,serif" font-size="16.00">0xf7fc43e0</text>
<polyline fill="none" stroke="black" points="494,-78.5 584,-78.5 "/>
<text text-anchor="middle" x="539" y="-61.7" font-family="Times,serif" font-size="16.00"> </text>
<polyline fill="none" stroke="black" points="494,-52.5 584,-52.5 "/>
<text text-anchor="middle" x="539" y="-35.7" font-family="Times,serif" font-size="16.00"> </text>
<polyline fill="none" stroke="black" points="494,-26.5 584,-26.5 "/>
<text text-anchor="middle" x="539" y="-9.7" font-family="Times,serif" font-size="16.00">1</text>
</g>
<!-- node10&#45;&gt;node12 -->
<g id="15" class="edge">
<title>node10:f2&#45;&gt;node12:f0</title>
<path fill="none" stroke="black" d="M439,-277.5C521.38,-277.5 416.7,-107.14 483,-92.5"/>
<polygon fill="black" stroke="black" points="483.4,-95.98 493,-91.5 482.7,-89.01 483.4,-95.98"/>
</g>
<!-- node11&#45;&gt;node1 -->
<g id="16" class="edge">
<title>node11:f2&#45;&gt;node1:f0</title>
<path fill="none" stroke="black" d="M511,-162.5C347.94,-162.5 308.25,-259.83 237,-406.5 213.19,-455.51 253.4,-523.1 210.99,-531.61"/>
<polygon fill="black" stroke="black" points="210.65,-528.12 201,-532.5 211.27,-535.1 210.65,-528.12"/>
</g>
</g>
</svg>
